<svg xmlns="http://www.w3.org/2000/svg" width="29" height="28" fill="none" viewBox="0 0 29 28"><path fill="#C9EEFF" d="m23.67 8.8-4.54 2.62 4.54 2.61 4.53-2.61-4.53-2.61ZM5.53 8.8 1 11.43l4.53 2.61 4.54-2.61L5.53 8.8Z"/><path fill="#5178E5" d="M10.07 21.82V27l4.53-2.6V19.2l-4.53 2.6Z"/><path fill="#59A8FE" d="M19.13 11.43v5.18L14.6 14V8.81l4.53 2.6ZM10.07 6.21v5.18L5.53 8.8V3.6l4.54 2.6ZM19.13 21.8v5.18l-4.53-2.6V19.2l4.53 2.6ZM10.07 11.45v5.18l-4.54-2.6V8.83l4.54 2.6Z"/><path fill="#59A8FE" d="M10.07 16.63v5.17l-4.54-2.6v-5.18l4.54 2.61ZM5.53 14.02v5.18L1 16.6v-5.18l4.53 2.6ZM14.6 19.21v5.18l-4.53-2.6v-5.17l4.53 2.6ZM10.07 21.8v5.18l-4.54-2.6V19.2l4.54 2.6Z"/><path fill="#5176E6" d="M19.13 6.21v5.18l4.53-2.6V3.6l-4.54 2.6ZM10.07 11.43v5.18L14.6 14V8.81l-4.53 2.6Z"/><path fill="#C9EEFF" d="m14.6 14-4.53 2.6 4.53 2.61 4.53-2.6L14.6 14ZM10.07 6.22 5.53 8.83l4.54 2.62 4.53-2.62-4.53-2.6Z"/><path fill="#C9EEFF" d="m14.6 3.6-4.53 2.62 4.53 2.61 4.53-2.6L14.6 3.6ZM19.13 1 14.6 3.6l4.53 2.62 4.54-2.61L19.13 1Z"/><path fill="#C9EEFF" d="M10.07 1 5.53 3.6l4.54 2.62 4.53-2.61L10.07 1ZM19.13 6.2 14.6 8.8l4.53 2.62 4.54-2.61-4.54-2.62Z"/><path stroke="#002445" stroke-linejoin="round" stroke-miterlimit="10" stroke-width=".47" d="M5.53 3.6v5.2L1 11.43v5.18l4.53 2.6v5.18l4.54 2.6 4.53-2.6 4.53 2.6 4.54-2.6V19.2l4.53-2.6v-5.18L23.67 8.8V3.6L19.13 1 14.6 3.6 10.07 1 5.53 3.6Z"/><path stroke="#fff" stroke-linecap="round" stroke-linejoin="round" stroke-miterlimit="10" stroke-width=".47" d="m1 11.41 4.53 2.64M10.07 21.82v5.16"/><path stroke="#002445" stroke-linejoin="round" stroke-miterlimit="10" stroke-width=".47" d="M10.07 16.63v5.2M5.53 8.8v10.4M19.13 21.8v-5.2"/><path stroke="#fff" stroke-linecap="round" stroke-linejoin="round" stroke-miterlimit="10" stroke-width=".47" d="M19.13 26.98V21.8M28.2 11.4l-4.53 2.63M23.67 3.6l-4.54 2.65M5.53 3.6l4.54 2.65"/><path stroke="#002445" stroke-linejoin="round" stroke-miterlimit="10" stroke-width=".47" d="M23.67 19.32V8.94M5.54 14.02l4.53 2.6M5.53 19.2l9.07 5.23"/><path fill="#5176E6" d="M19.13 11.43v5.18l4.53-2.6V8.81l-4.54 2.6Z"/><path fill="#5176E6" d="M19.13 16.6v5.19l4.53-2.61V14l-4.54 2.6ZM23.67 14.02v5.18l4.52-2.6v-5.18l-4.52 2.6ZM14.6 19.2v5.18l4.52-2.6v-5.17l-4.52 2.6Z"/><path fill="#5176E6" d="M19.13 21.79v5.18l4.53-2.6v-5.19l-4.54 2.6Z"/><path stroke="#002445" stroke-linejoin="round" stroke-miterlimit="10" stroke-width=".47" d="m23.58 19.2-9.06 5.23M23.66 14.03l-4.54 2.58M19.28 6.26 14.6 8.82M14.6 3.6l9.36 5.38M19.05 16.55l-4.45-2.6V8.83l-4.53-2.6M14.6 3.6 5.53 8.8M14.6 13.93l-4.56 2.63"/><path stroke="#fff" stroke-linecap="round" stroke-linejoin="round" stroke-miterlimit="10" stroke-width=".47" d="m5.53 8.8 4.54 2.65v5.17l4.53 2.6v5.16M23.67 8.8l-4.54 2.65v5.17l-4.53 2.6M10.07 11.45l4.53-2.62 4.53 2.62"/></svg>