<svg xmlns="http://www.w3.org/2000/svg" width="108" height="148" fill="none" viewBox="0 0 108 148"><g clip-path="url(#clip0_18_171)"><path fill="#FCFCF7" d="M38 40H70V72C52.3269 72 38 57.6731 38 40Z"/><path fill="#FCFCF7" d="M38 110C38 92.3269 52.3269 78 70 78V110H38Z"/><path fill="#FCFCF7" d="M76 116H108V148H76V116Z"/><path fill="#FCFCF7" d="M0 40H32C32 57.6731 17.6731 72 0 72V40Z"/><path fill="#FCFCF7" d="M0 78C17.6731 78 32 92.3269 32 110H0V78Z"/><path fill="#FCFCF7" d="M38 10L70 0V34H38V10Z"/><g opacity=".6"><path fill="#FCFCF7" d="M76 40H108V72H76V40Z"/><path fill="#FCFCF7" d="M38 116H70V148H38V116Z"/><path fill="#FCFCF7" d="M0 116H32V148C14.3269 148 0 133.673 0 116Z"/><path fill="#FCFCF7" d="M0 22L32 12V34H0V22Z"/></g></g><defs><clipPath id="clip0_18_171"><rect width="108" height="148" fill="#fff"/></clipPath></defs></svg>