<svg xmlns="http://www.w3.org/2000/svg" xmlns:xlink="http://www.w3.org/1999/xlink" width="56" height="45" viewBox="0 0 56 45"><title>F40D6CE7-4B76-44BF-B583-679B75EAE8C5</title><desc>Created with sketchtool.</desc><defs><polygon id="path-1" points=".376 .492 21.802 .492 21.802 18.973 .376 18.973"/><polygon id="path-3" points=".139 .267 24.734 .267 24.734 27.807 .139 27.807"/></defs><g id="Page-1" fill="none" fill-rule="evenodd" stroke="none" stroke-width="1"><g id="BProtocol-|-Desktop-HP-Final" transform="translate(-88.000000, -3794.000000)"><g id="Group-11" transform="translate(88.000000, 3794.000000)"><path id="Fill-1" fill="#25C068" d="M22.9420524,19.9199747 L14.743556,11.7214782 L1.04094726,25.4227909 C-0.346420818,26.811455 -0.346420818,29.0626071 1.04094726,30.4512712 L9.24009169,38.6497676 L22.9420524,24.9484549 C24.3307165,23.5597908 24.3307165,21.3086387 22.9420524,19.9199747"/><g id="Group-5" transform="translate(16.200001, 0.156298)"><mask id="mask-2" fill="#fff"><use xlink:href="#path-1"/></mask><path id="Fill-3" fill="#25C068" d="M13.6030111,17.9310682 L21.8015076,9.73257172 L13.6030111,1.53277928 C12.214347,0.144763208 9.96384293,0.144763208 8.57517885,1.53277928 L0.37603442,9.73257172 L8.57517885,17.9310682 C9.96384293,19.3197322 12.214347,19.3197322 13.6030111,17.9310682" mask="url(#mask-2)"/></g><path id="Fill-6" fill="#25C068" d="M24.7753093,26.7809342 L16.5761649,34.9794307 L24.7753093,43.1792231 C26.1639734,44.5672392 28.4144775,44.5672392 29.8031416,43.1792231 L38.001638,34.9794307 L29.8031416,26.7809342 C28.4144775,25.3922701 26.1639734,25.3922701 24.7753093,26.7809342"/><g id="Group-10" transform="translate(30.456002, 5.340298)"><mask id="mask-4" fill="#fff"><use xlink:href="#path-3"/></mask><path id="Fill-8" fill="#25C068" d="M23.6925661,8.46547245 L15.4940696,0.266976014 L1.17974886,14.5800008 C-0.208267211,15.9680168 -0.208267211,18.219817 1.17974886,19.607833 L9.3788933,27.8069775 L23.6925661,13.4933047 C25.0812301,12.1052886 25.0812301,9.85413652 23.6925661,8.46547245" mask="url(#mask-4)"/></g></g></g></g></svg>