<svg xmlns="http://www.w3.org/2000/svg" width="144" height="40" fill="none" viewBox="0 0 144 40"><path fill="#00EBAB" d="M50.7999 24.2H48V15.8H56.4V13H45.2V27H56.4V24.2H50.7999Z"/><path fill="#00EBAB" d="M56.3999 15.7998V24.1998H59.1999V15.7998H56.3999Z"/><path fill="#00EBAB" d="M73.3 13H62V15.8H73.2V18.6H62V27H76V24.2H64.8V21.4H76V13H73.3Z"/><path fill="#00EBAB" d="M40.4 0H0V40H40.4V0Z"/><path fill="#000" d="M24.2 16V24H26.9V16H24.2Z"/><path fill="#000" d="M16.2 18.7004V16.0004H24.3V13.4004H13.5V26.6004H24.3V24.0004H16.2V18.7004Z"/><path fill="#000" d="M29.6 10.7002H27V13.3002H29.7V10.7002H29.6Z"/></svg>