<svg xmlns="http://www.w3.org/2000/svg" xmlns:xlink="http://www.w3.org/1999/xlink" style="enable-background:new 0 0 496.999939 497" id="Spark-Logomark-RGB_00000061445967033202459310000005992675535628864924_" x="0" y="0" version="1.1" viewBox="0 0 497 497" xml:space="preserve"><style type="text/css"/><linearGradient id="Spark-Logomark-RGB_00000176022130462684269260000000240716719928865701_" x1="400.576" x2="80.11" y1="661.966" y2="907.768" gradientTransform="matrix(1 0 0 1 0 -530.1101685)" gradientUnits="userSpaceOnUse"><stop style="stop-color:#fa43bd" offset="0"/><stop style="stop-color:#ffa930" offset="1"/></linearGradient><path style="fill:url(#Spark-Logomark-RGB_00000176022130462684269260000000240716719928865701_)" id="Spark-Logomark-RGB" d="M313.0350037,279.1967773h177.9819946c6.8460083,0,8.2250061-9.3209534,2-12.1679382L313.04599,185.0601959V6.3826313	c0-6.6693368-8.9199829-8.8577614-11.9979858-2.9411669l-73.9880066,142.4588928l-81.9869995-37.6558304	c-7.8439941-3.167984-12.6609955,3.2189789-9.9989929,8.707962l48.8909912,100.850563H5.9827905	c-6.8455181,0-8.2251301,9.3209534-1.9996803,12.1679382l179.9708862,81.9696198v178.6772461	c0,6.6689758,8.9199982,8.8569641,11.9980011,2.9410095l73.9880066-142.4593811l81.9869995,37.6557922	c7.8439941,3.1679993,12.6610107-3.2179565,9.9989929-8.7079163L313.0350037,279.1967773z"/></svg>