<svg xmlns="http://www.w3.org/2000/svg" xmlns:svg="http://www.w3.org/2000/svg" id="svg4176" width="1791.894" height="1791.895" version="1.1" viewBox="0 0 474.105 474.106"><g id="layer1"><path style="fill:#3e3e3e;fill-opacity:1;stroke:none;stroke-width:1.99799;stroke-linecap:round;stroke-miterlimit:23.8;stroke-dasharray:none;stroke-opacity:0" id="path68062-4-6-4-4-8-1" d="m 37.5559,306.2471 130.3003,130.3025 138.391,-5e-4 130.3018,-130.302 -4e-4,-138.3911 -130.3014,-130.3003 -138.391,5e-4 -130.3011,130.2998 3e-4,23.5729 z"/><g id="g3675" transform="translate(-3438.5117,-1053.6264)"><path id="path49684-2-81-5-7" fill="url(#paint0_linear_162_190)" d="m 3619.2544,1474.5183 h 27.5988 v -112.6185 l -27.5988,27.5987 z" style="fill:#e3e6e3;fill-opacity:1;stroke-width:1.90191"/><path id="path49684-9-5-0-7-0" fill="url(#paint0_linear_162_190)" d="m 3731.8729,1474.5183 h -27.5987 v -112.6185 l 27.5987,27.5987 z" style="fill:#e3e6e3;fill-opacity:1;stroke-width:1.90191"/><path id="path49686-4-3-4-4" fill="url(#paint1_linear_162_190)" d="m 3491.7246,1354.443 27.5988,27.599 -5e-4,-182.7269 -27.5989,27.5988 z" style="fill:#e3e6e3;fill-opacity:1;stroke-width:1.90191"/><path id="path49686-2-49-0-1-0" fill="url(#paint1_linear_162_190)" d="m 3859.4034,1354.443 -27.5989,27.599 v -182.7276 l 27.5989,27.5989 z" style="fill:#e3e6e3;fill-opacity:1;stroke-width:1.90191"/><path id="path49686-2-4-9-4-8-8" fill="url(#paint1_linear_162_190)" d="m 3739.328,1106.8397 27.5989,27.5989 h -182.7271 l 27.5987,-27.5982 z" style="fill:#e3e6e3;fill-opacity:1;stroke-width:1.90191"/><path id="path49688-3-4-5-5" fill="url(#paint2_linear_162_190)" d="m 3626.7097,1261.9686 27.5988,-27.5988 h -85.0198 l 27.599,27.5988 z" style="fill:#e3e6e3;fill-opacity:1;stroke-width:1.90191"/><path id="path49688-2-5-44-9-1" fill="url(#paint2_linear_162_190)" d="m 3754.2395,1261.9686 27.5987,-27.5988 h -85.0195 l 27.5987,27.5988 z" style="fill:#e3e6e3;fill-opacity:1;stroke-width:1.90191"/><path id="path49692-0-7-7-6" fill="url(#paint4_linear_162_190)" d="m 3689.3631,1361.8998 h -27.5989 v 112.6185 h 27.5989 z" style="fill:#e3e6e3;fill-opacity:1;stroke-width:1.90191"/><path id="path49704-2-6-5-6" fill="url(#paint10_linear_162_190)" d="m 3689.3631,1234.3698 h -27.5989 v 70.1087 h 27.5989 z" style="fill:#e3e6e3;fill-opacity:1;stroke-width:1.90191"/><path id="path49706-9-31-3-2" fill="url(#paint11_linear_162_190)" d="m 3569.2886,1149.3498 -35.0544,35.0541 v 99.9316 l 27.5989,27.5988 v -116.0979 l 18.888,-18.8878 h 189.6851 l 18.8881,18.8881 v 116.0976 l 27.5989,-27.5988 v -99.9316 l -35.055,-35.0542 z" style="fill:#e3e6e3;fill-opacity:1;stroke-width:1.90191"/><path id="path49708-4-7-8-1" fill="url(#paint12_linear_162_190)" d="m 3534.2344,1396.9531 27.5992,27.5987 -6e-4,-105.162 -27.5988,27.5988 z" style="fill:#e3e6e3;fill-opacity:1;stroke-width:1.90191"/><path id="path49708-6-3-5-8-9" fill="url(#paint12_linear_162_190)" d="m 3816.8934,1396.9531 -27.5988,27.5987 -5e-4,-105.162 27.5989,27.5988 z" style="fill:#e3e6e3;fill-opacity:1;stroke-width:1.90191"/><path id="path49712-5-9-3-6" fill="url(#paint14_linear_162_190)" d="m 3629.2446,1319.3898 -52.5007,52.5006 6e-4,67.5726 27.5991,27.5988 -7e-4,-83.7396 36.3336,-36.3336 h 69.7738 l 36.3336,36.3336 6e-4,83.7396 27.5989,-27.5988 -6e-4,-68.6094 -51.0375,-51.4638 z" style="fill:#e3e6e3;fill-opacity:1;stroke-width:1.90191"/></g><path id="path49688-6-5-0-2-9-1-2-1-1-4" d="M 245.9183,0 436.5486,190.6369 V 107.5951 L 400.3499,71.3914 h -35.186 V 36.2054 L 328.9602,0 Z M 145.1505,0 108.9452,36.1986 V 71.3849 H 73.7608 l -36.2054,36.2034 v 83.0418 L 228.1922,0 Z" style="color:#000;fill:#3e3e3e;fill-opacity:1;stroke-width:3.5008;-inkscape-stroke:none;paint-order:markers stroke fill"/><path id="path49688-6-5-0-2-9-1-6-8-8" d="m 283.3869,15.5637 66.1156,66.1177 V 42.65 L 322.4183,15.5637 Z m -131.7019,0 -27.0841,27.0845 v 39.0314 l 66.1155,-66.1159 z m 203.0902,71.3865 66.1157,66.1157 V 114.0361 L 393.8061,86.9522 Z m -274.478,0 -27.0847,27.0843 v 39.0314 l 66.1159,-66.1157 z" style="fill:#2fd70a;fill-opacity:1;stroke:none;stroke-width:31.1231;stroke-dasharray:none;stroke-opacity:1;paint-order:markers stroke fill"/></g></svg>